<?xml version="1.0" encoding="UTF-8"?>
<svg version="1.1" xmlns="http://www.w3.org/2000/svg" width="128" height="128">
<path d="M0 0 C2.64 0 5.28 0 8 0 C8.33 23.76 8.66 47.52 9 72 C15.27 65.73 21.54 59.46 28 53 C31.23475448 54.61737724 32.70572021 55.47629223 35 58 C33.71977125 60.80969467 32.39285871 62.8539238 30.20263672 65.02441406 C29.64220673 65.58469299 29.08177673 66.14497192 28.50436401 66.722229 C27.90222076 67.31404968 27.30007751 67.90587036 26.6796875 68.515625 C26.06102814 69.13145447 25.44236877 69.74728394 24.80496216 70.3817749 C22.83296186 72.34260336 20.85411263 74.29635301 18.875 76.25 C17.53469836 77.58026799 16.19484917 78.910992 14.85546875 80.2421875 C11.57553411 83.5001015 8.28944058 86.75168533 5 90 C2.19030533 88.71977125 0.1460762 87.39285871 -2.02441406 85.20263672 C-2.58469299 84.64220673 -3.14497192 84.08177673 -3.722229 83.50436401 C-4.31404968 82.90222076 -4.90587036 82.30007751 -5.515625 81.6796875 C-6.13145447 81.06102814 -6.74728394 80.44236877 -7.3817749 79.80496216 C-9.34260336 77.83296186 -11.29635301 75.85411263 -13.25 73.875 C-14.58026799 72.53469836 -15.910992 71.19484917 -17.2421875 69.85546875 C-20.5001015 66.57553411 -23.75168533 63.28944058 -27 60 C-25.64062915 57.1394109 -24.35479531 55.14072301 -22 53 C-13.55672523 57.22163739 -7.6749948 65.3250052 -1 72 C-0.67 48.24 -0.34 24.48 0 0 Z " fill="#FFFFFF" transform="translate(60,20)"/>
</svg>
