<?xml version="1.0" encoding="UTF-8"?>
<svg version="1.1" xmlns="http://www.w3.org/2000/svg" width="128" height="128">
<path d="M0 0 C3.17898713 1.37439825 5.19724282 3.30156745 7.651474 5.73420715 C8.54608337 6.5953009 9.44069275 7.45639465 10.3624115 8.34358215 C12.276474 10.98420715 12.276474 10.98420715 12.08658981 13.42617226 C11.19824977 16.23120925 10.28600147 17.48119567 8.22868347 19.5533905 C7.25300415 20.55032425 7.25300415 20.55032425 6.25761414 21.56739807 C5.53970703 22.28035034 4.82179993 22.99330261 4.08213806 23.7278595 C3.329245 24.49097443 2.57635193 25.25408936 1.80064392 26.04032898 C-0.69192474 28.56070758 -3.19908978 31.06594063 -5.707901 33.57014465 C-7.44371672 35.31373166 -9.17908274 37.05776647 -10.91401672 38.80223083 C-14.55238219 42.45552343 -18.19840856 46.10096142 -21.84950256 49.74153137 C-26.53536322 54.4157853 -31.19806607 59.11240778 -35.85486984 63.815588 C-39.4320241 67.42214929 -43.02287569 71.0148215 -46.61788177 74.60358047 C-48.34340482 76.3301328 -50.06418334 78.06143999 -51.780159 79.79748154 C-54.17661979 82.21851389 -56.59125089 84.61981638 -59.01161194 87.016922 C-60.07632721 88.10456848 -60.07632721 88.10456848 -61.16255188 89.21418762 C-61.82428406 89.86189117 -62.48601624 90.50959473 -63.1678009 91.17692566 C-63.73709194 91.74655218 -64.30638298 92.3161787 -64.89292526 92.90306664 C-66.723526 93.98420715 -66.723526 93.98420715 -69.30335808 93.76947594 C-72.4394194 92.75192214 -74.00378831 91.22535971 -76.34608459 88.91096497 C-77.22984772 88.04626587 -78.11361084 87.18156677 -79.02415466 86.29066467 C-79.97408393 85.34021266 -80.9233378 84.38908523 -81.8719635 83.43733215 C-82.85326567 82.46380681 -83.83501271 81.49072971 -84.81718445 80.51808167 C-86.86982142 78.48034614 -88.91456281 76.43506041 -90.95448303 74.38459778 C-93.57069193 71.75677487 -96.20898081 69.15243912 -98.8540554 66.55371475 C-100.88566517 64.5515458 -102.90327544 62.53571815 -104.91708755 60.51566315 C-105.88446952 59.54930846 -106.85659316 58.58767659 -107.83346176 57.63091278 C-109.19568499 56.29332606 -110.5370608 54.934607 -111.87733459 53.57502747 C-112.64612946 52.80749146 -113.41492432 52.03995544 -114.20701599 51.24916077 C-115.723526 48.98420715 -115.723526 48.98420715 -115.5957489 46.36671448 C-114.37724508 43.03832873 -112.45901913 41.11676088 -109.973526 38.60920715 C-109.11243225 37.71459778 -108.2513385 36.8199884 -107.364151 35.89826965 C-104.723526 33.98420715 -104.723526 33.98420715 -102.49916077 33.94831848 C-98.29092293 35.51886586 -95.76024153 38.45575447 -92.67274475 41.6443634 C-92.01393814 42.3088298 -91.35513153 42.9732962 -90.67636108 43.65789795 C-88.57832945 45.77828534 -86.49464695 47.9121666 -84.411026 50.04670715 C-82.98942445 51.48837457 -81.5669086 52.92914103 -80.14344788 54.36897278 C-76.65945267 57.8970249 -73.18826063 61.4372424 -69.723526 64.98420715 C-65.47007336 63.34256386 -62.67452289 60.15817526 -59.56556702 56.95808411 C-58.95853943 56.34171082 -58.35151184 55.72533752 -57.72608948 55.09028625 C-56.41065184 53.75387156 -55.09739952 52.4153031 -53.78608894 51.07483864 C-51.7112074 48.95591919 -49.62847741 46.84502873 -47.54309082 44.7364502 C-41.61546681 38.7416123 -35.69616051 32.73875795 -29.79750061 26.71540833 C-26.18769085 23.03043743 -22.56352122 19.36013244 -18.92962456 15.6989193 C-17.54655124 14.29970701 -16.16905974 12.89495488 -14.79725838 11.48468971 C-12.88196302 9.51662308 -10.94899793 7.56770329 -9.01087952 5.62214661 C-8.16362556 4.73782204 -8.16362556 4.73782204 -7.29925537 3.83563232 C-3.40459834 -0.01974216 -3.40459834 -0.01974216 0 0 Z " fill="#FFFFFF" transform="translate(115.72352600097656,17.015792846679688)"/>
</svg>
