<?xml version="1.0" encoding="UTF-8"?>
<svg version="1.1" xmlns="http://www.w3.org/2000/svg" width="128" height="128">
<path d="M0 0 C3 0.125 3 0.125 4 1.125 C4.12406815 3.33294411 4.17802278 5.54484486 4.20532227 7.75610352 C4.21522186 8.44875305 4.22512146 9.14140259 4.23532104 9.8550415 C4.2670203 12.15462779 4.29172651 14.45423477 4.31640625 16.75390625 C4.33696852 18.34432018 4.35796479 19.93472855 4.37937927 21.52513123 C4.43467509 25.71889763 4.4840511 29.91271395 4.53222656 34.10656738 C4.58238691 38.38293928 4.63810144 42.65923834 4.69335938 46.93554688 C4.80103274 55.33196973 4.90245716 63.72845338 5 72.125 C5.58491211 71.52437744 6.16982422 70.92375488 6.77246094 70.30493164 C8.95063243 68.07556751 11.13553321 65.85308444 13.32519531 63.63500977 C14.73511441 62.2026228 16.13713794 60.76247805 17.5390625 59.32226562 C18.42851563 58.42314453 19.31796875 57.52402344 20.234375 56.59765625 C21.05131836 55.76500244 21.86826172 54.93234863 22.70996094 54.07446289 C24.93335007 52.18173771 26.09976743 51.28138509 29 51.125 C31.25 53.0625 31.25 53.0625 33 55.125 C31.50691015 60.16506277 28.50139299 63.10684806 24.890625 66.73828125 C24.28619568 67.35269577 23.68176636 67.96711029 23.059021 68.60014343 C21.78192123 69.89239095 20.50075779 71.18063347 19.21582031 72.46508789 C17.25462721 74.43285727 15.31868213 76.42336769 13.3828125 78.41601562 C12.13689124 79.67073678 10.88954188 80.92404181 9.640625 82.17578125 C9.065401 82.7725618 8.490177 83.36934235 7.89752197 83.98420715 C5.27971927 86.55837029 3.62305071 87.96642103 0.01586914 88.88452148 C-4.44260578 87.76169177 -6.75616148 85.1729547 -9.89453125 81.921875 C-10.52735519 81.28767639 -11.16017914 80.65347778 -11.81217957 80.00006104 C-13.14455379 78.65863817 -14.46964333 77.30994558 -15.7878418 75.95458984 C-17.80708028 73.88056677 -19.8493205 71.83158241 -21.89648438 69.78515625 C-23.18892459 68.47796949 -24.47998848 67.16942018 -25.76953125 65.859375 C-26.68506523 64.93883331 -26.68506523 64.93883331 -27.61909485 63.99969482 C-28.46083504 63.1292453 -28.46083504 63.1292453 -29.31958008 62.24121094 C-29.81444412 61.7349115 -30.30930817 61.22861206 -30.81916809 60.70697021 C-32.22218132 58.82734186 -32.74683762 57.45549007 -33 55.125 C-31.0625 52.875 -31.0625 52.875 -29 51.125 C-24.82500836 52.50051929 -22.41874407 54.35077136 -19.35546875 57.4765625 C-18.51435547 58.32734375 -17.67324219 59.178125 -16.80664062 60.0546875 C-15.94232422 60.94414063 -15.07800781 61.83359375 -14.1875 62.75 C-12.86202148 64.09578125 -12.86202148 64.09578125 -11.50976562 65.46875 C-9.33292575 67.68088998 -7.16340336 69.89973073 -5 72.125 C-4.9845388 70.79409081 -4.9845388 70.79409081 -4.96876526 69.43629456 C-4.87096575 61.09248429 -4.76847685 52.74874785 -4.66066074 44.40506077 C-4.60539264 40.1150379 -4.55196657 35.82500826 -4.50268555 31.53491211 C-4.45509914 27.39814564 -4.40275868 23.26146464 -4.34705925 19.12479973 C-4.32660966 17.54310153 -4.30790097 15.96137988 -4.29092598 14.37964058 C-4.2669393 12.17170822 -4.23687744 9.9639388 -4.20532227 7.75610352 C-4.18977798 6.49701675 -4.1742337 5.23792999 -4.15821838 3.94068909 C-3.93981757 0.0539802 -3.91842853 0.16326786 0 0 Z " fill="#FFFFFF" transform="translate(64,7.875)"/>
<path d="M0 0 C3 0.125 3 0.125 4 1.125 C4 7.395 4 13.665 4 20.125 C35.68 20.125 67.36 20.125 100 20.125 C100 13.855 100 7.585 100 1.125 C101 0.125 101 0.125 104 0 C107 0.125 107 0.125 108 1.125 C108.30812861 4.88756903 108.27842143 8.66386644 108.3125 12.4375 C108.35600586 14.02594727 108.35600586 14.02594727 108.40039062 15.64648438 C108.40876953 16.66677734 108.41714844 17.68707031 108.42578125 18.73828125 C108.44036377 19.67454346 108.45494629 20.61080566 108.4699707 21.57543945 C107.81902342 25.10678617 106.92446177 26.01153139 104 28.125 C100.69282836 28.73230803 97.41702479 28.67111459 94.0625 28.64257812 C93.05396973 28.6495874 92.04543945 28.65659668 91.00634766 28.66381836 C87.67061886 28.68143218 84.33573752 28.6697631 81 28.65625 C78.68359209 28.65894393 76.36718528 28.66282551 74.05078125 28.66784668 C69.19520302 28.67374634 64.33991904 28.66516338 59.484375 28.64648438 C53.25635354 28.62369496 47.02902155 28.63681548 40.80102539 28.66077423 C36.01752515 28.67521932 31.23418873 28.67063205 26.45068359 28.66026306 C24.15413329 28.65759223 21.85756817 28.660878 19.56103516 28.67018127 C16.3527886 28.68032527 13.14566294 28.66487483 9.9375 28.64257812 C8.98568848 28.65067505 8.03387695 28.65877197 7.05322266 28.66711426 C0.63563915 28.58436774 0.63563915 28.58436774 -2.59172058 26.2519989 C-4.37041648 23.5655404 -4.47574345 21.94607523 -4.42578125 18.73828125 C-4.41740234 17.71798828 -4.40902344 16.69769531 -4.40039062 15.64648438 C-4.37138672 14.58751953 -4.34238281 13.52855469 -4.3125 12.4375 C-4.30283203 11.36693359 -4.29316406 10.29636719 -4.28320312 9.19335938 C-4.15164408 0.17298517 -4.15164408 0.17298517 0 0 Z " fill="#FFFFFF" transform="translate(12,91.875)"/>
</svg>
