<?xml version="1.0" encoding="UTF-8"?>
<svg version="1.1" xmlns="http://www.w3.org/2000/svg" width="128" height="128">
<path d="M0 0 C3.53239023 1.50684968 5.7962166 3.55366612 8.49316406 6.26611328 C9.81408051 7.58725632 9.81408051 7.58725632 11.16168213 8.93508911 C12.11310431 9.89672351 13.06441603 10.8584672 14.015625 11.8203125 C14.99596129 12.80438107 15.97674168 13.78800742 16.95794678 14.77120972 C19.53354467 17.35442714 22.10307857 19.94359512 24.67138672 22.53405762 C27.29551067 25.1786762 29.92533771 27.8176101 32.5546875 30.45703125 C37.7087167 35.63248072 42.85635157 40.81423122 48 46 C51.53239023 44.49315032 53.7962166 42.44633388 56.49316406 39.73388672 C57.37377502 38.85312469 58.25438599 37.97236267 59.16168213 37.06491089 C60.11310431 36.10327649 61.06441603 35.1415328 62.015625 34.1796875 C62.99596129 33.19561893 63.97674168 32.21199258 64.95794678 31.22879028 C67.53354467 28.64557286 70.10307857 26.05640488 72.67138672 23.46594238 C75.29551067 20.8213238 77.92533771 18.1823899 80.5546875 15.54296875 C85.7087167 10.36751928 90.85635157 5.18576878 96 0 C99.76488042 1.72154788 102.15063897 3.99234114 105 7 C103.42476254 10.85308766 100.82252556 13.44743914 97.90771484 16.31933594 C97.39048355 16.83685928 96.87325226 17.35438263 96.34034729 17.8875885 C94.63524329 19.59130289 92.92317232 21.28782978 91.2109375 22.984375 C90.025087 24.16649407 88.83967826 25.34905645 87.6546936 26.53204346 C84.53882362 29.64028728 81.41699366 32.74247737 78.29388428 35.84344482 C75.10636381 39.01048502 71.9245168 42.18321387 68.7421875 45.35546875 C62.50033024 51.57589403 56.25216515 57.78993537 50 64 C46.14691234 62.42476254 43.55256086 59.82252556 40.68066406 56.90771484 C40.16314072 56.39048355 39.64561737 55.87325226 39.1124115 55.34034729 C37.40869711 53.63524329 35.71217022 51.92317232 34.015625 50.2109375 C32.83350593 49.025087 31.65094355 47.83967826 30.46795654 46.6546936 C27.35971272 43.53882362 24.25752263 40.41699366 21.15655518 37.29388428 C17.98951498 34.10636381 14.81678613 30.9245168 11.64453125 27.7421875 C5.42410597 21.50033024 -0.78993537 15.25216515 -7 9 C-5.27845212 5.23511958 -3.00765886 2.84936103 0 0 Z " fill="#777777" transform="translate(15,32)"/>
</svg>
