<?xml version="1.0" encoding="UTF-8"?>
<svg version="1.1" xmlns="http://www.w3.org/2000/svg" width="128" height="128">
<path d="M0 0 C1.73265106 -0.03355087 1.73265106 -0.03355087 3.50030518 -0.06777954 C4.74511658 -0.07425507 5.98992798 -0.08073059 7.27246094 -0.08740234 C8.55739441 -0.09975922 9.84232788 -0.11211609 11.16619873 -0.12484741 C13.88641659 -0.14730324 16.60635483 -0.15687489 19.32666016 -0.15917969 C22.79513784 -0.16445016 26.26125539 -0.21570211 29.72909927 -0.27869606 C33.05605192 -0.32966236 36.38262906 -0.3302001 39.70996094 -0.33740234 C41.56503265 -0.3774791 41.56503265 -0.3774791 43.45758057 -0.41836548 C53.10967849 -0.34269703 53.10967849 -0.34269703 57.22851562 3.12597656 C57.82240585 3.76674133 58.41629608 4.4075061 59.02818298 5.06768799 C60.88695746 7.05600412 62.68751663 8.64694577 64.79811096 10.3414917 C70.93406351 15.477344 75.80512872 20.03158558 76.79397869 28.26145363 C77.02583906 32.53887221 76.94324471 36.77423493 76.79980469 41.05322266 C76.78634776 42.90690011 76.77841806 44.76062504 76.77571106 46.61434937 C76.75588106 50.47047624 76.69053146 54.32196691 76.58764648 58.17675781 C76.45660302 63.11583628 76.40990134 68.05112854 76.39286327 72.99178505 C76.3759791 76.80623933 76.33125019 80.61992031 76.27636147 84.43400192 C76.25043006 86.25600298 76.22940199 88.07808076 76.21339989 89.90019608 C76.1837361 92.43776012 76.1204909 94.97217472 76.04663086 97.50878906 C76.04261261 98.25787537 76.03859436 99.00696167 76.03445435 99.77874756 C75.89481472 103.34400675 75.50037215 105.16354311 73.17402649 107.91574097 C69.63115544 109.78108488 66.70239399 110.01547235 62.79199219 109.96923828 C62.05802216 109.97624756 61.32405212 109.98325684 60.56784058 109.99047852 C58.15128296 110.00802662 55.73590463 109.99644807 53.31933594 109.98291016 C51.63451921 109.98560601 49.94970399 109.98948921 48.26489258 109.99450684 C44.73764196 110.00039753 41.21079712 109.99185301 37.68359375 109.97314453 C33.16738077 109.9503549 28.65211866 109.96348033 24.13594055 109.98743439 C20.65800847 110.00190414 17.18030099 109.99728105 13.70236206 109.98692322 C12.03742357 109.98425917 10.37246454 109.98751438 8.70755005 109.99684143 C6.37837895 110.00702688 4.05073717 109.99148035 1.72167969 109.96923828 C1.03685516 109.97733521 0.35203064 109.98543213 -0.35354614 109.99377441 C-3.77892005 109.93332315 -5.70463729 109.47530578 -8.6472168 107.66931152 C-12.68967486 103.3921225 -11.8914269 98.14772915 -11.88842773 92.53979492 C-11.89346565 91.19034286 -11.89346565 91.19034286 -11.89860535 89.81362915 C-11.90810338 86.84009419 -11.91005781 83.86661559 -11.91113281 80.89306641 C-11.9143459 78.82567827 -11.91771001 76.75829036 -11.92121887 74.69090271 C-11.92720706 70.35748772 -11.92905906 66.02409267 -11.9284668 61.69067383 C-11.92836513 56.13778029 -11.94202394 50.58501448 -11.95923901 45.03215122 C-11.97035607 40.76250114 -11.9723861 36.49288199 -11.97185707 32.22321892 C-11.97303737 30.1758982 -11.97746196 28.12857669 -11.98518944 26.08127022 C-11.99498445 23.21839563 -11.99211329 20.35579897 -11.98608398 17.49291992 C-11.99170349 16.6475618 -11.997323 15.80220367 -12.00311279 14.93122864 C-11.97516263 9.70961451 -11.83937481 5.56949589 -7.97711182 1.66738892 C-5.16474609 0.13688137 -3.19740435 0.04551951 0 0 Z M-4.74316406 7.45166016 C-4.74316406 38.80166016 -4.74316406 70.15166016 -4.74316406 102.45166016 C7.28121094 102.47228516 19.30558594 102.49291016 31.69433594 102.51416016 C35.49634521 102.52326416 39.29835449 102.53236816 43.21557617 102.54174805 C46.61249497 102.5450917 46.61249497 102.5450917 50.00941467 102.54710388 C51.5268737 102.54864326 53.04433149 102.55216808 54.56178284 102.55723572 C56.85525653 102.56451454 59.14865523 102.56556753 61.44213867 102.56518555 C62.73675522 102.56740616 64.03137177 102.56962677 65.36521912 102.57191467 C68.15125976 102.78294128 68.15125976 102.78294128 69.25683594 101.45166016 C69.35109189 99.30422467 69.37426242 97.1536499 69.37036133 95.00415039 C69.37050735 94.331008 69.37065338 93.6578656 69.37080383 92.96432495 C69.37010472 90.72960231 69.36231246 88.49496206 69.35449219 86.26025391 C69.352628 84.71468654 69.3512041 83.16911858 69.35020447 81.62355042 C69.34637934 77.54808939 69.33654911 73.47266379 69.32550049 69.3972168 C69.31528626 65.24154133 69.31070682 61.08586017 69.30566406 56.93017578 C69.29492683 48.77065428 69.27785047 40.61116162 69.25683594 32.45166016 C67.94328125 32.43748047 66.62972656 32.42330078 65.27636719 32.40869141 C63.54065543 32.36178028 61.80497942 32.31353295 60.06933594 32.26416016 C59.20501953 32.25835937 58.34070313 32.25255859 57.45019531 32.24658203 C56.60908203 32.21757813 55.76796875 32.18857422 54.90136719 32.15869141 C53.74664917 32.13512573 53.74664917 32.13512573 52.56860352 32.11108398 C50.25683594 31.45166016 50.25683594 31.45166016 45.25683594 26.45166016 C44.92683594 20.18166016 44.59683594 13.91166016 44.25683594 7.45166016 C28.08683594 7.45166016 11.91683594 7.45166016 -4.74316406 7.45166016 Z M51.25683594 7.45166016 C49.77063698 10.42405806 50.12506585 13.14785593 50.13183594 16.45166016 C50.12925781 17.70978516 50.12667969 18.96791016 50.12402344 20.26416016 C50.03456236 23.34843833 50.03456236 23.34843833 51.25683594 25.45166016 C56.86683594 25.45166016 62.47683594 25.45166016 68.25683594 25.45166016 C66.58141284 22.10081395 65.57084813 20.51690773 63.03417969 17.99853516 C62.1031543 17.07041016 62.1031543 17.07041016 61.15332031 16.12353516 C60.50685547 15.48931641 59.86039063 14.85509766 59.19433594 14.20166016 C58.54400391 13.55197266 57.89367187 12.90228516 57.22363281 12.23291016 C54.61687485 9.08933313 54.61687485 9.08933313 51.25683594 7.45166016 Z " fill="#FFFCFC" transform="translate(31.7431640625,8.54833984375)"/>
<path d="M0 0 C2.475 0.495 2.475 0.495 5 1 C5 6.61 5 12.22 5 18 C10.61 18 16.22 18 22 18 C22.495 20.475 22.495 20.475 23 23 C22 24 22 24 18.18359375 24.09765625 C16.60152953 24.09191138 15.01948969 24.07889593 13.4375 24.0625 C10.653125 24.041875 7.86875 24.02125 5 24 C5 29.61 5 35.22 5 41 C2.525 41.495 2.525 41.495 0 42 C-1 41 -1 41 -1.09765625 37.18359375 C-1.09191138 35.60152953 -1.07889593 34.01948969 -1.0625 32.4375 C-1.041875 29.653125 -1.02125 26.86875 -1 24 C-6.61 24 -12.22 24 -18 24 C-18.33 22.35 -18.66 20.7 -19 19 C-18 18 -18 18 -14.18359375 17.90234375 C-12.60153318 17.90901911 -11.01948841 17.92098125 -9.4375 17.9375 C-8.63119141 17.94201172 -7.82488281 17.94652344 -6.99414062 17.95117188 C-4.99606244 17.96299482 -2.99802217 17.98093086 -1 18 C-1.01160156 16.78441406 -1.02320312 15.56882812 -1.03515625 14.31640625 C-1.04453278 12.73177236 -1.05363313 11.14713682 -1.0625 9.5625 C-1.07087891 8.76005859 -1.07925781 7.95761719 -1.08789062 7.13085938 C-1.0965143 5.08704779 -1.0522815 3.04316098 -1 1 C-0.67 0.67 -0.34 0.34 0 0 Z " fill="#FFFDFD" transform="translate(62,43)"/>
</svg>
