<?xml version="1.0" encoding="UTF-8"?>
<svg version="1.1" xmlns="http://www.w3.org/2000/svg" width="128" height="128">
<path d="M0 0 C15.51 0 31.02 0 47 0 C50.3 4.62 53.6 9.24 57 14 C63.12437546 15.48272208 63.12437546 15.48272208 68.95803833 15.73861694 C69.69993534 15.71446087 70.44183235 15.69030479 71.20621109 15.66541672 C71.96573956 15.63918858 72.72526802 15.61296043 73.5078125 15.5859375 C75.08535521 15.58225632 76.66292335 15.58477163 78.240448 15.59317017 C82.36249753 15.59868862 86.4787821 15.52093512 90.59954834 15.42486572 C95.5593086 15.32693392 100.51993101 15.33406407 105.48049927 15.32327271 C112.99067722 15.29532414 120.48754597 15.1353247 128 15 C128 34.14 128 53.28 128 73 C126.35 73 124.7 73 123 73 C123 60.46 123 47.92 123 35 C118.89175781 35.20882812 114.78351563 35.41765625 110.55078125 35.6328125 C107.23927797 35.74887053 103.92836166 35.84635653 100.61597443 35.9315033 C97.13580069 36.02598423 93.66372433 36.15162316 90.18823242 36.35791016 C67.94151736 37.64347734 67.94151736 37.64347734 61.543396 33.35241699 C56.77406732 28.59454795 54.05599056 22.93706989 51 17 C48.36 13.37 45.72 9.74 43 6 C30.46 5.67 17.92 5.34 5 5 C5 39.32 5 73.64 5 109 C30.41 109 55.82 109 82 109 C82 110.65 82 112.3 82 114 C54.94 114 27.88 114 0 114 C0 76.38 0 38.76 0 0 Z M61 20 C63.88617737 25.07034625 63.88617737 25.07034625 67 30 C69.46202018 30.43883166 69.46202018 30.43883166 72.36767578 30.34057617 C74.04919235 30.34023628 74.04919235 30.34023628 75.76467896 30.33988953 C76.97928802 30.32440567 78.19389709 30.30892181 79.4453125 30.29296875 C80.68546112 30.28872391 81.92560974 30.28447906 83.20333862 30.28010559 C86.50135463 30.26613216 89.7989335 30.23917361 93.09680176 30.20599365 C96.46161542 30.17531238 99.82649304 30.16160446 103.19140625 30.14648438 C109.79444271 30.1133473 116.39718558 30.06309697 123 30 C123 26.7 123 23.4 123 20 C102.54 20 82.08 20 61 20 Z " fill="#FFFFFF" transform="translate(0,7)"/>
<path d="M0 0 C4.42794492 0.72361843 8.51536684 2.17298342 12.70703125 3.72265625 C13.79512337 4.12006264 13.79512337 4.12006264 14.90519714 4.52549744 C17.20889344 5.36776423 19.51070506 6.21505266 21.8125 7.0625 C23.37943534 7.63640079 24.94649138 8.20997213 26.51367188 8.78320312 C30.34385618 10.18499094 34.17235885 11.5912836 38 13 C38 13.99 38 14.98 38 16 C34.37 17.98 30.74 19.96 27 22 C27.95003906 22.88042969 28.90007812 23.76085937 29.87890625 24.66796875 C31.10754554 25.84033448 32.33536814 27.01355652 33.5625 28.1875 C34.50512695 29.0547168 34.50512695 29.0547168 35.46679688 29.93945312 C37.14586179 31.56346673 38.66443015 33.08244999 40 35 C39.90234375 37.92578125 39.90234375 37.92578125 39 40 C34.36403322 39.15233735 32.00733571 36.30762457 28.875 33 C25.31087316 29.02011003 25.31087316 29.02011003 21 26 C20.7525 26.845625 20.505 27.69125 20.25 28.5625 C18.86026373 32.38427474 17.08879162 35.51868063 15 39 C12.15703949 36.15703949 11.27752051 32.68343717 9.9609375 28.96484375 C9.67521881 28.1709877 9.38950012 27.37713165 9.09512329 26.55921936 C8.49242285 24.88148767 7.89242359 23.20278353 7.29492188 21.52319336 C6.37675541 18.94243406 5.45085623 16.3645565 4.5234375 13.78710938 C3.93965276 12.15901596 3.35630439 10.53076599 2.7734375 8.90234375 C2.49535248 8.12632309 2.21726746 7.35030243 1.93075562 6.55076599 C0 1.11775314 0 1.11775314 0 0 Z M9 9 C10.98 14.61 12.96 20.22 15 26 C18.09354051 22.53808527 18.09354051 22.53808527 18.3125 19.875 C18.539375 19.25625 18.76625 18.6375 19 18 C22.0625 16.75 22.0625 16.75 25 16 C25 15.34 25 14.68 25 14 C22.70967689 13.16280617 20.41789043 12.3301071 18.125 11.5 C17.47402344 11.26152344 16.82304688 11.02304688 16.15234375 10.77734375 C12.66542411 9.45122467 12.66542411 9.45122467 9 9 Z " fill="#FFFFFF" transform="translate(84,79)"/>
</svg>
