<?xml version="1.0" encoding="UTF-8"?>
<svg version="1.1" xmlns="http://www.w3.org/2000/svg" width="128" height="128">
<path d="M0 0 C3.78991994 0.39102786 4.8333749 1.24942424 7.5039978 3.90176392 C8.30437469 4.68322784 9.10475159 5.46469177 9.92938232 6.26983643 C11.19535751 7.55402969 11.19535751 7.55402969 12.48690796 8.86416626 C13.36626007 9.73777802 14.24561218 10.61138977 15.15161133 11.51147461 C17.48110296 13.83583925 19.79536587 16.17422875 22.10543823 18.51785278 C23.52478674 19.94891028 24.95526898 21.3677258 26.39071655 22.78262329 C29.14745493 25.50232023 31.88262307 28.2419477 34.61190796 30.98916626 C35.89610123 32.25514145 35.89610123 32.25514145 37.20623779 33.54669189 C37.98770172 34.34706879 38.76916565 35.14744568 39.5743103 35.97207642 C40.26680878 36.66934845 40.95930725 37.36662048 41.67279053 38.08502197 C43.64708181 41.07692699 43.6757572 42.80369518 43.15097046 46.32510376 C41.67279053 48.56518555 41.67279053 48.56518555 39.5743103 50.6781311 C38.79284637 51.478508 38.01138245 52.27888489 37.20623779 53.10351562 C35.92204453 54.36949081 35.92204453 54.36949081 34.61190796 55.66104126 C33.7382962 56.54039337 32.86468445 57.41974548 31.96459961 58.32574463 C29.64023497 60.65523626 27.30184547 62.96949917 24.95822144 65.27957153 C23.52716394 66.69892004 22.10834842 68.12940229 20.69345093 69.56484985 C17.97375399 72.32158823 15.23412652 75.05675637 12.48690796 77.78604126 C11.22093277 79.07023453 11.22093277 79.07023453 9.92938232 80.38037109 C9.12900543 81.16183502 8.32862854 81.94329895 7.5039978 82.7484436 C6.80672577 83.44094208 6.10945374 84.13344055 5.39105225 84.84692383 C2.47638331 86.77024875 0.57752686 86.67382654 -2.84902954 86.32510376 C-4.78652954 85.26260376 -4.78652954 85.26260376 -5.84902954 83.32510376 C-5.72787658 77.90361135 -4.46561707 75.25869575 -0.7716217 71.56791687 C-0.20806473 71.03532761 0.35549225 70.50273834 0.93612671 69.95401001 C1.51180893 69.38681747 2.08749115 68.81962494 2.68061829 68.23524475 C4.51123523 66.43804631 6.36163826 64.662908 8.21347046 62.88760376 C9.46288644 61.66830199 10.71094947 60.44761219 11.95761108 59.22549438 C15.00663535 56.24240084 18.07357497 53.27890907 21.15097046 50.32510376 C19.41329659 50.3163044 19.41329659 50.3163044 17.64051819 50.30732727 C6.73665168 50.2501769 -4.16701391 50.17745577 -15.07067585 50.08938885 C-20.67671084 50.04461309 -26.28267195 50.00537291 -31.88882446 49.97866821 C-37.29652606 49.95270708 -42.7039444 49.9123559 -48.11147118 49.8619175 C-50.1771512 49.84520002 -52.24288026 49.83371625 -54.30861855 49.82748985 C-57.1964976 49.81790175 -60.08364394 49.78990631 -62.97134399 49.75747681 C-63.83017685 49.7589119 -64.6890097 49.76034698 -65.5738678 49.76182556 C-71.40700723 49.66885199 -71.40700723 49.66885199 -73.56880474 47.9876833 C-75.54333316 45.4234379 -75.24037235 43.45584627 -74.84902954 40.32510376 C-73.56880474 38.66252422 -73.56880474 38.66252422 -71.84902954 37.32510376 C-68.82346286 37.01509312 -65.9996329 36.88767051 -62.97134399 36.89273071 C-61.61006378 36.87744324 -61.61006378 36.87744324 -60.22128296 36.86184692 C-57.21823018 36.83162543 -54.2154959 36.82243698 -51.21231079 36.81338501 C-49.13150464 36.79654512 -47.05070871 36.77839582 -44.96992493 36.75898743 C-39.49057202 36.71140646 -34.01126052 36.68164945 -28.5317688 36.6555481 C-22.94147562 36.62578341 -17.35132525 36.57923907 -11.76113892 36.53408813 C-0.79051037 36.44796289 10.18014751 36.38065863 21.15097046 36.32510376 C20.36859009 35.56890747 19.58620972 34.81271118 18.78012085 34.03359985 C15.87319824 31.21736383 12.98300786 28.38445877 10.09750366 25.54629517 C8.84775645 24.32164978 7.59355274 23.10153473 6.33480835 21.88613892 C4.52324969 20.13541886 2.72849244 18.36888005 0.93612671 16.59854126 C0.37256973 16.06079071 -0.19098724 15.52304016 -0.7716217 14.96899414 C-4.16796405 11.57511622 -5.72238079 9.1721019 -5.84902954 4.32510376 C-4.37459911 1.02931809 -3.61118371 0.41207344 0 0 Z " fill="#FFFFFF" transform="translate(79.84902954101563,20.674896240234375)"/>
</svg>
