<?xml version="1.0" encoding="UTF-8"?>
<svg version="1.1" xmlns="http://www.w3.org/2000/svg" width="128" height="128">
<path d="M0 0 C4.32733757 0.50306064 6.23467666 2.51184821 9.12313843 5.52441406 C9.67021454 6.07061401 10.21729065 6.61681396 10.78094482 7.17956543 C12.58098868 8.98378074 14.35886348 10.80829117 16.13729858 12.63378906 C17.38294275 13.89062682 18.62992059 15.14614408 19.87817383 16.40039062 C23.15650314 19.70160478 26.4164149 23.02043901 29.67282104 26.34326172 C33.00030787 29.7321772 36.34489166 33.10412486 39.68807983 36.47753906 C46.24269003 43.09645591 52.77796938 49.73411229 59.30136108 56.38378906 C63.18799235 54.80841222 65.75551351 52.16030906 68.61727905 49.19970703 C69.13491821 48.67272217 69.65255737 48.1457373 70.18588257 47.6027832 C71.30652713 46.46117805 72.42497816 45.31741638 73.54146957 44.17174911 C75.30994887 42.35916728 77.08631351 40.5546833 78.86535645 38.75247192 C83.92177539 33.62890812 88.96986747 28.49737099 93.99716187 23.34521484 C97.07523308 20.19184983 100.16774935 17.05328963 103.27002335 13.92374039 C104.44854453 12.72911247 105.62148701 11.52895422 106.78866196 10.32323837 C108.42109923 8.63784058 110.0712622 6.97189544 111.72665405 5.30908203 C112.2037381 4.80728424 112.68082214 4.30548645 113.17236328 3.78848267 C115.68436244 1.30594393 117.02942421 0.41443699 120.58728027 0.01345825 C123.30136108 0.38378906 123.30136108 0.38378906 124.30136108 1.38378906 C124.87133971 5.39163255 124.62913894 6.94476793 122.17538452 10.23129272 C121.18590588 11.23809168 120.17967971 12.22859865 119.16073608 13.20556641 C118.61453613 13.75264252 118.06833618 14.29971863 117.50558472 14.8633728 C115.70136941 16.66341666 113.87685897 18.44129146 112.05136108 20.21972656 C110.79452332 21.46537073 109.53900607 22.71234857 108.28475952 23.96060181 C104.98354537 27.23893112 101.66471114 30.49884288 98.34188843 33.75524902 C94.95297295 37.08273585 91.58102529 40.42731963 88.20761108 43.77050781 C81.58869424 50.32511801 74.95103785 56.86039735 68.30136108 63.38378906 C69.87673793 67.27042033 72.52484108 69.83794149 75.48544312 72.69970703 C76.01242798 73.21734619 76.53941284 73.73498535 77.08236694 74.26831055 C78.2239721 75.38895511 79.36773376 76.50740614 80.51340103 77.62389755 C82.32598286 79.39237685 84.13046685 81.16874149 85.93267822 82.94778442 C91.05624203 88.00420337 96.18777916 93.05229545 101.3399353 98.07958984 C104.49330032 101.15766106 107.63186052 104.25017733 110.76140976 107.35245132 C111.95603768 108.53097251 113.15619593 109.70391499 114.36191177 110.87108994 C116.04730956 112.50352721 117.71325471 114.15369018 119.37606812 115.80908203 C119.87786591 116.28616608 120.3796637 116.76325012 120.89666748 117.25479126 C123.37920622 119.76679041 124.27071316 121.11185218 124.67169189 124.66970825 C124.30136108 127.38378906 124.30136108 127.38378906 123.30136108 128.38378906 C119.2935176 128.95376769 117.74038221 128.71156691 114.45385742 126.2578125 C113.44705846 125.26833386 112.4565515 124.26210769 111.47958374 123.24316406 C110.93250763 122.69696411 110.38543152 122.15076416 109.82177734 121.5880127 C108.02173349 119.78379739 106.24385869 117.95928695 104.46542358 116.13378906 C103.21977942 114.8769513 101.97280158 113.62143405 100.72454834 112.3671875 C97.44621903 109.06597335 94.18630727 105.74713912 90.92990112 102.42431641 C87.6024143 99.03540093 84.25783051 95.66345327 80.91464233 92.29003906 C74.36003214 85.67112222 67.82475279 79.03346583 61.30136108 72.38378906 C57.41472982 73.95916591 54.84720866 76.60726906 51.98544312 79.56787109 C51.46780396 80.09485596 50.95016479 80.62184082 50.4168396 81.16479492 C49.29619504 82.30640008 48.17774401 83.45016174 47.06125259 84.59582901 C45.2927733 86.40841084 43.51640865 88.21289483 41.73736572 90.0151062 C36.68094678 95.13867001 31.6328547 100.27020714 26.6055603 105.42236328 C23.52748909 108.57572829 20.43497282 111.7142885 17.33269882 114.84383774 C16.15417763 116.03846565 14.98123515 117.23862391 13.81406021 118.44433975 C12.18162294 120.12973754 10.53145996 121.79568269 8.87606812 123.45849609 C8.39898407 123.96029388 7.92190002 124.46209167 7.43035889 124.97909546 C4.91835973 127.46163419 3.57329796 128.35314114 0.01544189 128.75411987 C-2.69863892 128.38378906 -2.69863892 128.38378906 -3.69863892 127.38378906 C-4.26861754 123.37594558 -4.02641677 121.82281019 -1.57266235 118.5362854 C-0.58318371 117.52948644 0.42304245 116.53897948 1.44198608 115.56201172 C1.98818604 115.01493561 2.53438599 114.4678595 3.09713745 113.90420532 C4.90135276 112.10416147 6.72586319 110.32628667 8.55136108 108.54785156 C9.80819885 107.3022074 11.0637161 106.05522955 12.31796265 104.80697632 C15.6191768 101.52864701 18.93801103 98.26873525 22.26083374 95.0123291 C25.64974922 91.68484228 29.02169688 88.34025849 32.39511108 84.99707031 C39.01402793 78.44246012 45.65168432 71.90718077 52.30136108 65.38378906 C50.72598424 61.4971578 48.07788108 58.92963664 45.11727905 56.06787109 C44.59029419 55.55023193 44.06330933 55.03259277 43.52035522 54.49926758 C42.37875007 53.37862302 41.2349884 52.26017199 40.08932114 51.14368057 C38.27673931 49.37520128 36.47225532 47.59883663 34.67004395 45.8197937 C29.54648014 40.76337476 24.41494301 35.71528268 19.26278687 30.68798828 C16.10942185 27.60991706 12.97086165 24.5174008 9.84131241 21.4151268 C8.64668449 20.23660561 7.44652624 19.06366313 6.24081039 17.89648819 C4.5554126 16.26405092 2.88946746 14.61388794 1.22665405 12.95849609 C0.72485626 12.48141205 0.22305847 12.004328 -0.29394531 11.51278687 C-2.77648405 9.00078771 -3.66799099 7.65572594 -4.06896973 4.09786987 C-3.57927983 0.50903011 -3.57927983 0.50903011 0 0 Z " fill="#FFFEFE" transform="translate(3.698638916015625,-0.3837890625)"/>
</svg>
