<?xml version="1.0" encoding="UTF-8"?>
<svg version="1.1" xmlns="http://www.w3.org/2000/svg" width="128" height="128">
<path d="M0 0 C0.90234375 -0.01546875 1.8046875 -0.0309375 2.734375 -0.046875 C6.63525997 -0.02379284 9.20596741 -0.00175065 12.546875 2.109375 C14.4064456 5.16866856 14.82441332 7.7034443 15.25 11.25 C15.39953125 12.42046875 15.5490625 13.5909375 15.703125 14.796875 C15.80109375 15.68890625 15.8990625 16.5809375 16 17.5 C18.65228005 18.29004087 20.28398008 18.72425853 23 18.5 C25.28701352 17.24920395 25.28701352 17.24920395 27.5 15.5625 C30.42337751 13.45529388 31.97534327 12.50562346 35.5625 11.6875 C40.64750159 12.88940947 43.43188903 15.81245436 47 19.5 C47.53367187 20.01304688 48.06734375 20.52609375 48.6171875 21.0546875 C51.00533082 23.5507695 51.98493374 25.42740804 52.6875 28.8125 C51.85385003 33.2838953 49.9151244 35.66521071 47.26953125 39.27734375 C45.86771488 41.73160072 45.69697071 42.81088316 46.125 45.5625 C46.41375 46.531875 46.7025 47.50125 47 48.5 C47.89203125 48.59796875 48.7840625 48.6959375 49.703125 48.796875 C50.87359375 48.94640625 52.0440625 49.0959375 53.25 49.25 C54.41015625 49.38921875 55.5703125 49.5284375 56.765625 49.671875 C60.58314952 50.64930881 61.889282 51.15973754 64 54.5 C64.57688467 57.84654319 64.55808286 61.11183298 64.5 64.5 C64.52320313 65.85351562 64.52320313 65.85351562 64.546875 67.234375 C64.52379284 71.13525997 64.50175065 73.70596741 62.390625 77.046875 C59.33133144 78.9064456 56.7965557 79.32441332 53.25 79.75 C52.07953125 79.89953125 50.9090625 80.0490625 49.703125 80.203125 C48.81109375 80.30109375 47.9190625 80.3990625 47 80.5 C46.20995913 83.15228005 45.77574147 84.78398008 46 87.5 C47.25079605 89.78701352 47.25079605 89.78701352 48.9375 92 C51.04470612 94.92337751 51.99437654 96.47534327 52.8125 100.0625 C51.61059053 105.14750159 48.68754564 107.93188903 45 111.5 C44.48695312 112.03367187 43.97390625 112.56734375 43.4453125 113.1171875 C40.9492305 115.50533082 39.07259196 116.48493374 35.6875 117.1875 C31.2161047 116.35385003 28.83478929 114.4151244 25.22265625 111.76953125 C22.76839928 110.36771488 21.68911684 110.19697071 18.9375 110.625 C17.968125 110.91375 16.99875 111.2025 16 111.5 C15.90203125 112.39203125 15.8040625 113.2840625 15.703125 114.203125 C15.55359375 115.37359375 15.4040625 116.5440625 15.25 117.75 C15.11078125 118.91015625 14.9715625 120.0703125 14.828125 121.265625 C13.85069119 125.08314952 13.34026246 126.389282 10 128.5 C6.65345681 129.07688467 3.38816702 129.05808286 0 129 C-1.35351562 129.02320313 -1.35351562 129.02320313 -2.734375 129.046875 C-6.63525997 129.02379284 -9.20596741 129.00175065 -12.546875 126.890625 C-14.4064456 123.83133144 -14.82441332 121.2965557 -15.25 117.75 C-15.39953125 116.57953125 -15.5490625 115.4090625 -15.703125 114.203125 C-15.85007812 112.86507812 -15.85007812 112.86507812 -16 111.5 C-18.65228005 110.70995913 -20.28398008 110.27574147 -23 110.5 C-25.28701352 111.75079605 -25.28701352 111.75079605 -27.5 113.4375 C-30.42337751 115.54470612 -31.97534327 116.49437654 -35.5625 117.3125 C-40.64750159 116.11059053 -43.43188903 113.18754564 -47 109.5 C-47.80050781 108.73042969 -47.80050781 108.73042969 -48.6171875 107.9453125 C-51.00533082 105.4492305 -51.98493374 103.57259196 -52.6875 100.1875 C-51.85385003 95.7161047 -49.9151244 93.33478929 -47.26953125 89.72265625 C-45.86771488 87.26839928 -45.69697071 86.18911684 -46.125 83.4375 C-46.41375 82.468125 -46.7025 81.49875 -47 80.5 C-47.89203125 80.40203125 -48.7840625 80.3040625 -49.703125 80.203125 C-50.87359375 80.05359375 -52.0440625 79.9040625 -53.25 79.75 C-54.41015625 79.61078125 -55.5703125 79.4715625 -56.765625 79.328125 C-60.58314952 78.35069119 -61.889282 77.84026246 -64 74.5 C-64.57688467 71.15345681 -64.55808286 67.88816702 -64.5 64.5 C-64.51546875 63.59765625 -64.5309375 62.6953125 -64.546875 61.765625 C-64.52379284 57.86474003 -64.50175065 55.29403259 -62.390625 51.953125 C-59.33133144 50.0935544 -56.7965557 49.67558668 -53.25 49.25 C-52.07953125 49.10046875 -50.9090625 48.9509375 -49.703125 48.796875 C-48.36507812 48.64992188 -48.36507812 48.64992188 -47 48.5 C-46.20995913 45.84771995 -45.77574147 44.21601992 -46 41.5 C-47.25079605 39.21298648 -47.25079605 39.21298648 -48.9375 37 C-51.04470612 34.07662249 -51.99437654 32.52465673 -52.8125 28.9375 C-51.61059053 23.85249841 -48.68754564 21.06811097 -45 17.5 C-44.23042969 16.69949219 -44.23042969 16.69949219 -43.4453125 15.8828125 C-40.9492305 13.49466918 -39.07259196 12.51506626 -35.6875 11.8125 C-31.2161047 12.64614997 -28.83478929 14.5848756 -25.22265625 17.23046875 C-22.76839928 18.63228512 -21.68911684 18.80302929 -18.9375 18.375 C-17.968125 18.08625 -16.99875 17.7975 -16 17.5 C-15.85304688 16.16195313 -15.85304688 16.16195313 -15.703125 14.796875 C-15.55359375 13.62640625 -15.4040625 12.4559375 -15.25 11.25 C-15.11078125 10.08984375 -14.9715625 8.9296875 -14.828125 7.734375 C-12.7194875 -0.50124695 -7.39185542 -0.12671752 0 0 Z M-7 6.5 C-8.64800856 10.16447432 -9.33580973 13.31203466 -9.625 17.3125 C-9.69976562 18.28832031 -9.77453125 19.26414062 -9.8515625 20.26953125 C-9.90054688 21.00558594 -9.94953125 21.74164063 -10 22.5 C-10.77601562 22.64179688 -11.55203125 22.78359375 -12.3515625 22.9296875 C-15.02012089 23.39891262 -15.02012089 23.39891262 -17.375 24.625 C-21.07098685 25.85699562 -23.24413824 25.5360998 -27 24.5 C-29.54920058 22.70611811 -31.79131767 20.69525569 -34 18.5 C-39.65253308 19.87031105 -42.5113541 24.17689413 -46 28.5 C-44.71140666 31.2768279 -43.26587668 33.46732857 -41.3125 35.8125 C-39.20313543 38.70977427 -38.99694823 39.32299725 -39.0625 43.125 C-39.87105134 46.03578484 -40.84050059 48.71720141 -42 51.5 C-42 52.49 -42 53.48 -42 54.5 C-43.60681641 54.69916016 -43.60681641 54.69916016 -45.24609375 54.90234375 C-46.64325769 55.0805056 -48.04039159 55.25890319 -49.4375 55.4375 C-50.14455078 55.52451172 -50.85160156 55.61152344 -51.58007812 55.70117188 C-55.08817968 55.88216191 -55.08817968 55.88216191 -58 57.5 C-58.07271741 59.85313555 -58.08370868 62.20833668 -58.0625 64.5625 C-58.05347656 65.85285156 -58.04445313 67.14320312 -58.03515625 68.47265625 C-58.02355469 69.47167969 -58.01195312 70.47070312 -58 71.5 C-54.33552568 73.14800856 -51.18796534 73.83580973 -47.1875 74.125 C-46.21167969 74.19976562 -45.23585938 74.27453125 -44.23046875 74.3515625 C-43.12638672 74.42503906 -43.12638672 74.42503906 -42 74.5 C-41.85820313 75.27601562 -41.71640625 76.05203125 -41.5703125 76.8515625 C-41.10108738 79.52012089 -41.10108738 79.52012089 -39.875 81.875 C-38.64300438 85.57098685 -38.9639002 87.74413824 -40 91.5 C-41.79388189 94.04920058 -43.80474431 96.29131767 -46 98.5 C-44.62968895 104.15253308 -40.32310587 107.0113541 -36 110.5 C-33.2231721 109.21140666 -31.03267143 107.76587668 -28.6875 105.8125 C-25.79022573 103.70313543 -25.17700275 103.49694823 -21.375 103.5625 C-18.46421516 104.37105134 -15.78279859 105.34050059 -13 106.5 C-12.01 106.5 -11.02 106.5 -10 106.5 C-9.80083984 108.10681641 -9.80083984 108.10681641 -9.59765625 109.74609375 C-9.4194944 111.14325769 -9.24109681 112.54039159 -9.0625 113.9375 C-8.97548828 114.64455078 -8.88847656 115.35160156 -8.79882812 116.08007812 C-8.61783809 119.58817968 -8.61783809 119.58817968 -7 122.5 C-4.64686445 122.57271741 -2.29166332 122.58370868 0.0625 122.5625 C1.35285156 122.55347656 2.64320312 122.54445313 3.97265625 122.53515625 C4.97167969 122.52355469 5.97070312 122.51195313 7 122.5 C8.64800856 118.83552568 9.33580973 115.68796534 9.625 111.6875 C9.69976562 110.71167969 9.77453125 109.73585938 9.8515625 108.73046875 C9.92503906 107.62638672 9.92503906 107.62638672 10 106.5 C11.16402344 106.28730469 11.16402344 106.28730469 12.3515625 106.0703125 C15.02012089 105.60108738 15.02012089 105.60108738 17.375 104.375 C21.07098685 103.14300438 23.24413824 103.4639002 27 104.5 C29.54920058 106.29388189 31.79131767 108.30474431 34 110.5 C39.65253308 109.12968895 42.5113541 104.82310587 46 100.5 C44.71140666 97.7231721 43.26587668 95.53267143 41.3125 93.1875 C39.20313543 90.29022573 38.99694823 89.67700275 39.0625 85.875 C39.87105134 82.96421516 40.84050059 80.28279859 42 77.5 C42 76.51 42 75.52 42 74.5 C43.07121094 74.36722656 44.14242187 74.23445313 45.24609375 74.09765625 C46.64325769 73.9194944 48.04039159 73.74109681 49.4375 73.5625 C50.14455078 73.47548828 50.85160156 73.38847656 51.58007812 73.29882812 C55.08817968 73.11783809 55.08817968 73.11783809 58 71.5 C58.07271741 69.14686445 58.08370868 66.79166332 58.0625 64.4375 C58.05347656 63.14714844 58.04445313 61.85679688 58.03515625 60.52734375 C58.02355469 59.52832031 58.01195313 58.52929688 58 57.5 C54.33552568 55.85199144 51.18796534 55.16419027 47.1875 54.875 C46.21167969 54.80023438 45.23585938 54.72546875 44.23046875 54.6484375 C43.49441406 54.59945312 42.75835937 54.55046875 42 54.5 C41.78730469 53.33597656 41.78730469 53.33597656 41.5703125 52.1484375 C41.10108738 49.47987911 41.10108738 49.47987911 39.875 47.125 C38.64300438 43.42901315 38.9639002 41.25586176 40 37.5 C41.79388189 34.95079942 43.80474431 32.70868233 46 30.5 C44.62968895 24.84746692 40.32310587 21.9886459 36 18.5 C33.2231721 19.78859334 31.03267143 21.23412332 28.6875 23.1875 C25.79022573 25.29686457 25.17700275 25.50305177 21.375 25.4375 C18.46421516 24.62894866 15.78279859 23.65949941 13 22.5 C12.01 22.5 11.02 22.5 10 22.5 C9.86722656 21.42878906 9.73445313 20.35757812 9.59765625 19.25390625 C9.4194944 17.85674231 9.24109681 16.45960841 9.0625 15.0625 C8.97548828 14.35544922 8.88847656 13.64839844 8.79882812 12.91992188 C8.61783809 9.41182032 8.61783809 9.41182032 7 6.5 C4.64686445 6.42728259 2.29166332 6.41629132 -0.0625 6.4375 C-1.35285156 6.44652344 -2.64320312 6.45554687 -3.97265625 6.46484375 C-4.97167969 6.47644531 -5.97070312 6.48804688 -7 6.5 Z " fill="#5A5555" transform="translate(64,-0.5)"/>
<path d="M0 0 C6.47876645 4.6089754 11.44228933 9.97851797 13 18 C13.71702306 27.65223349 12.94416829 34.67780326 6.75 42.25 C1.85651406 47.51592885 -3.48278608 50.66443554 -10.734375 51.203125 C-20.74768125 51.35877225 -26.8344695 49.78250673 -34.23828125 42.90234375 C-40.31513167 36.34042323 -41.3226024 29.68857984 -41.20703125 21.03125 C-40.65386058 12.93199646 -36.88646452 7.45132546 -31 2 C-22.26875012 -4.32514344 -9.4688185 -5.58265757 0 0 Z M-30 10 C-33.88288308 15.39289317 -35.2718631 20.32889787 -35 27 C-33.5916013 33.62640043 -30.37466481 38.29024133 -24.875 42.25 C-19.85818126 44.88194987 -14.31283433 45.70412158 -8.7578125 44.5234375 C-2.50183035 42.37515684 2.07000357 39.03034013 5.20703125 33.05078125 C7.29247843 27.65738338 7.69768068 22.17731187 5.8125 16.6875 C3.08715803 10.61353158 -0.69557733 6.4377101 -7 4 C-15.83895647 1.88038075 -23.4686893 3.4686893 -30 10 Z " fill="#5B5656" transform="translate(78,40)"/>
</svg>
