<?xml version="1.0" encoding="UTF-8"?>
<svg version="1.1" xmlns="http://www.w3.org/2000/svg" width="128" height="128">
<path d="M0 0 C1.06992188 0.474375 2.13984375 0.94875 3.2421875 1.4375 C19.75466286 9.51889971 30.60523995 22.82755446 37 40 C41.30117326 53.9146728 41.09524021 71.68480263 35 85 C34.525625 86.06992188 34.05125 87.13984375 33.5625 88.2421875 C25.53996296 104.63439059 12.16715507 115.82260053 -5 122 C-22.41824347 127.05634913 -41.59366026 125.04005104 -57.41772461 116.46020508 C-72.85764719 107.52172136 -82.86748581 93.36904589 -88.11328125 76.3984375 C-91.19627114 63.38867917 -90.58043482 47.19059274 -85 35 C-84.2884375 33.39511719 -84.2884375 33.39511719 -83.5625 31.7578125 C-75.48110029 15.24533714 -62.17244554 4.39476005 -45 -2 C-31.0853272 -6.30117326 -13.31519737 -6.09524021 0 0 Z M-65.8984375 23.35546875 C-76.80807545 37.08376781 -80.66670529 51.67255444 -79 69 C-76.59359769 82.292508 -69.60010269 94.57628471 -59 103 C-44.50075959 112.78055271 -29.72535108 116.48476183 -12.375 113.34375 C2.63679169 109.15776962 14.50806791 100.58704237 22.375 87.125 C29.67997778 73.83311652 31.54194371 58.84438432 27.4375 44.125 C21.37087005 27.28267769 10.90580377 16.64771152 -5 9 C-25.59521308 0.15652234 -50.96787686 7.42048858 -65.8984375 23.35546875 Z " fill="#FFFFFF" transform="translate(89,4)"/>
<path d="M0 0 C2.33349609 1.76586914 2.33349609 1.76586914 4.5234375 4.03515625 C5.31621094 4.84404297 6.10898437 5.65292969 6.92578125 6.48632812 C7.73402344 7.33646484 8.54226562 8.18660156 9.375 9.0625 C10.20644531 9.91650391 11.03789063 10.77050781 11.89453125 11.65039062 C13.94142129 13.75609934 15.97572717 15.87257749 18 18 C21.23855769 16.58888224 23.27437065 14.911624 25.6796875 12.33984375 C26.36160156 11.62892578 27.04351562 10.91800781 27.74609375 10.18554688 C29.16363272 8.68867775 30.57512911 7.18606272 31.98046875 5.67773438 C37.2215008 0.24423504 37.2215008 0.24423504 41.38671875 -1.0625 C44 -1 44 -1 45.9375 0.0625 C47.54157752 2.98758254 46.82151528 4.82713307 46 8 C44.23413086 10.33349609 44.23413086 10.33349609 41.96484375 12.5234375 C41.15595703 13.31621094 40.34707031 14.10898437 39.51367188 14.92578125 C38.2384668 16.13814453 38.2384668 16.13814453 36.9375 17.375 C36.08349609 18.20644531 35.22949219 19.03789063 34.34960938 19.89453125 C32.24390066 21.94142129 30.12742251 23.97572717 28 26 C29.41111776 29.23855769 31.088376 31.27437065 33.66015625 33.6796875 C34.37107422 34.36160156 35.08199219 35.04351562 35.81445312 35.74609375 C37.31132225 37.16363272 38.81393728 38.57512911 40.32226562 39.98046875 C45.75576496 45.2215008 45.75576496 45.2215008 47.0625 49.38671875 C47 52 47 52 45.9375 53.9375 C43.01241746 55.54157752 41.17286693 54.82151528 38 54 C35.66650391 52.23413086 35.66650391 52.23413086 33.4765625 49.96484375 C32.68378906 49.15595703 31.89101562 48.34707031 31.07421875 47.51367188 C29.86185547 46.2384668 29.86185547 46.2384668 28.625 44.9375 C27.79355469 44.08349609 26.96210937 43.22949219 26.10546875 42.34960938 C24.05857871 40.24390066 22.02427283 38.12742251 20 36 C16.76144231 37.41111776 14.72562935 39.088376 12.3203125 41.66015625 C11.63839844 42.37107422 10.95648438 43.08199219 10.25390625 43.81445312 C8.83636728 45.31132225 7.42487089 46.81393728 6.01953125 48.32226562 C0.7784992 53.75576496 0.7784992 53.75576496 -3.38671875 55.0625 C-6 55 -6 55 -7.9375 53.9375 C-9.54157752 51.01241746 -8.82151528 49.17286693 -8 46 C-6.23413086 43.66650391 -6.23413086 43.66650391 -3.96484375 41.4765625 C-3.15595703 40.68378906 -2.34707031 39.89101562 -1.51367188 39.07421875 C-0.66353516 38.26597656 0.18660156 37.45773438 1.0625 36.625 C1.91650391 35.79355469 2.77050781 34.96210937 3.65039062 34.10546875 C5.75609934 32.05857871 7.87257749 30.02427283 10 28 C8.58888224 24.76144231 6.911624 22.72562935 4.33984375 20.3203125 C3.62892578 19.63839844 2.91800781 18.95648438 2.18554688 18.25390625 C0.68867775 16.83636728 -0.81393728 15.42487089 -2.32226562 14.01953125 C-7.75576496 8.7784992 -7.75576496 8.7784992 -9.0625 4.61328125 C-9 2 -9 2 -7.9375 0.0625 C-5.01241746 -1.54157752 -3.17286693 -0.82151528 0 0 Z " fill="#FFFFFF" transform="translate(45,37)"/>
</svg>
